# xmcd
#
# Track frame offsets: 
#        150
#        16048
#        37654
#        49403
#        60750
#        69714
#        82765
#        94227
#        111349
#        121703
#        140671
#        165483
#        181568
#        199776
#        216711
#        228434
#        242685
#        259194
#        271915
#        282245
#        295438
#        310720
#        325564
#        342498
#
# Disc length: 4792 seconds
#
# Revision: 0
# Processed by: cddbd v1.4PL0 Copyright (c) Steve Scherf et al.
# Submitted via: ExactAudioCopy v0.90b4
#
DISCID=5212b618
DTITLE=Various Artist - Best of Country and Western CD2-2
DYEAR=2002
DGENRE=Country
TTITLE0=Better Walk The Line - Linda Ronstadt
TTITLE1=El Paso - Peter Zoot
TTITLE2=Stand By Your Man - Tina Turner
TTITLE3=Listen To A Country Song - Lynn Anderson
TTITLE4=Jade Idol - Stray Cats
TTITLE5=Rockabilly Rebel - Matchbox
TTITLE6=Ring Of Fire- Johnny Cash
TTITLE7=Just Another Rhinestone - Lullybay
TTITLE8=Cradle Of Love - Johnny Preston
TTITLE9=Don't Be Cruel - Billy Swan
TTITLE10=Good Morning America - Awa McDauwel
TTITLE11=Let It Happen - Boz Scaggs
TTITLE12=Want To Be With You Tonight - Alabama
TTITLE13=Sugar Daddy - The Bellamy Brothers
TTITLE14=Walkin' After Midnight - Patsy Cline
TTITLE15=If I Said You Have A Beautiful Body - The Bellamy Brothers
TTITLE16=Fever - Don Williams
TTITLE17=Six Two Seven Double O - Merle Van Doom
TTITLE18=You Win Again - Johnny Cash
TTITLE19=Quicksand - Rolle
TTITLE20=You Got It - Ad Van Hoorn
TTITLE21=Arizona - The Wild Swans
TTITLE22=Throwaway Smile - Rolle
TTITLE23=Convoy - Merle Van Doom
EXTD=
EXTT0=
EXTT1=
EXTT2=
EXTT3=
EXTT4=
EXTT5=
EXTT6=
EXTT7=
EXTT8=
EXTT9=
EXTT10=
EXTT11=
EXTT12=
EXTT13=
EXTT14=
EXTT15=
EXTT16=
EXTT17=
EXTT18=
EXTT19=
EXTT20=
EXTT21=
EXTT22=
EXTT23=
PLAYORDER=
